# xmcd CD database file
#
# Track frame offsets:
#	150
#	21864
#	50437
#	73118
#	92263
#	125229
#	157362
#	189273
#	203267
#	230733
#	247110
#	265642
#
# Disc length: 3868 seconds
#
# Revision: 0
# Processed by: cddbd v1.5.1PL2 Copyright (c) Steve Scherf et al.
# Submitted via: CDex 1.51
#
DISCID=a50f1a0c
DTITLE=ICED LEMON TEA - cafe lounge
DYEAR=2006
DGENRE=Jazz
TTITLE0=MAS QUE NADA - GREGOR SALTO FEAT. HELENA MENDES
TTITLE1=CALCADAO - RIOVOLT FEAT. JU CASSOU
TTITLE2=TEMA DE LA ONDA - NICOLA CONTE MEETS ALDEMARO ROMERO
TTITLE3=RIO 70 - NYLON
TTITLE4=YOU ARE (Nicola Conte New Samba Mix) POVO FEAT. KATRINE MADSEN
TTITLE5=MASTERED THE ART (Nicola Conte Jet Sound Remix) - GREYBOY
TTITLE6=RUSTLICA - I-DEP FEAT. ELEN NASCIMENTO
TTITLE7=OS GRILOS (Crickets Sing For Ana Maria) - MARCELA
TTITLE8=PURO PRAZER (Jet Bossa Mix) - MARCO 'POLO' CECERE FEAT. MARUCA RODRIGUEZ
TTITLE9=COPA - ROBERTO MENESCAL and WANDA SA
TTITLE10=FOTOGRAFIA - CRIS DELANNO
TTITLE11=MOMBASA BOSSA - XAVER FISHER TRIO
EXTD=YEAR: 2006
EXTT0=
EXTT1=
EXTT2=
EXTT3=
EXTT4=
EXTT5=
EXTT6=
EXTT7=
EXTT8=
EXTT9=
EXTT10=
EXTT11=
PLAYORDER=
